<?xml version="1.0" encoding="UTF-8"?>
<!DOCTYPE svg PUBLIC "-//W3C//DTD SVG 1.1//EN" "http://www.w3.org/Graphics/SVG/1.1/DTD/svg11.dtd">
<!-- Creator: CorelDRAW X8 -->
<svg xmlns="http://www.w3.org/2000/svg" xml:space="preserve" width="80.9mm" height="69.4mm" version="1.1" style="shape-rendering:geometricPrecision; text-rendering:geometricPrecision; image-rendering:optimizeQuality; fill-rule:evenodd; clip-rule:evenodd"
viewBox="0 0 8090 6940"
 xmlns:xlink="http://www.w3.org/1999/xlink">
 <defs>
  <style type="text/css">
   <![CDATA[
    .fil1 {fill:#FF9203}
    .fil0 {fill:#FFD75D}
   ]]>
  </style>
 </defs>
 <g id="Capa_x0020_1">
  <metadata id="CorelCorpID_0Corel-Layer"/>
  <g id="_3009999330656">
   <g id="_2162107001152">
    <path class="fil0" d="M3442 2895l-87 -79c-438,-443 -956,-193 -1702,-688l-497 -380c149,562 1011,949 1086,1052 -352,16 -226,21 -585,-30 11,73 198,195 263,229 350,181 837,58 1362,177 -42,118 -227,362 -303,459 -112,143 -214,268 -407,363l435 42c-958,355 -737,1211 -747,1269 77,-497 369,-1118 831,-1272 114,-38 281,-43 424,-87 402,-123 749,-390 749,-905 0,-246 -226,-601 -138,-765 105,-34 145,26 251,64 -35,-609 -865,-520 -995,-1027l-35 -117c-20,138 -33,210 40,332 48,78 111,176 172,207 -121,-22 -162,-91 -263,-125 93,151 238,236 396,337l-283 -28c29,41 6,7 35,42 2,2 29,31 34,35 81,72 216,115 309,160 -90,134 -65,235 -221,496l-32 48c-430,-798 -1501,-597 -2344,-1343 -86,-75 -180,-202 -272,-262 164,559 622,847 1124,1040 178,68 1497,506 1400,756z"/>
    <path class="fil1" d="M4386 3305c224,-24 43,-172 1062,-195 303,-7 516,-4 759,-179 33,-24 65,-51 86,-70 57,-48 58,-29 68,-98 -370,71 -216,53 -587,35l63 -59c22,-15 57,-32 84,-48 358,-207 807,-523 943,-944l-581 434c-204,133 -449,229 -733,271 -682,100 -945,323 -1164,853z"/>
    <path class="fil1" d="M4352 3111c106,-106 149,-345 614,-573 767,-375 1862,-486 2134,-1442 -286,188 -330,526 -1493,878 -305,93 -603,204 -813,372 -192,154 -404,423 -442,765z"/>
    <path class="fil0" d="M2971 4944c87,82 185,125 234,255 217,583 -847,1150 -1268,417 -158,-274 -129,-490 -133,-827 -88,101 -152,347 -152,512 0,662 734,1142 1407,694 414,-277 337,-965 -88,-1051z"/>
    <path class="fil1" d="M5474 1902c404,-89 1494,-599 1579,-1140 41,-258 -135,-562 -299,-590 302,552 61,783 -256,1084 -298,284 -962,562 -1024,646z"/>
    <path class="fil0" d="M960 677c0,592 1172,1133 1582,1224 -113,-139 -1423,-604 -1423,-1314 0,-176 80,-296 145,-417 -152,38 -304,282 -304,507z"/>
    <path class="fil0" d="M870 4371c402,563 1042,324 1246,-49 -468,182 -789,318 -1246,49z"/>
    <path class="fil0" d="M1989 5419c-23,-622 139,-806 505,-1132l26 -25c2,-9 9,-10 13,-14 -838,137 -680,979 -544,1171z"/>
    <path class="fil0" d="M2632 3832c-421,-12 -731,67 -1200,-100 -142,-50 -207,-103 -316,-150 112,200 304,340 625,378 254,29 692,-31 891,-128z"/>
    <path class="fil0" d="M932 3803c307,714 1417,478 1646,336 -340,24 -610,71 -961,13 -432,-69 -461,-163 -685,-349z"/>
   </g>
  </g>
 </g>
</svg>
